<?xml version="1.0" encoding="utf-8"?>
<!-- Generator: Adobe Illustrator 16.0.0, SVG Export Plug-In . SVG Version: 6.00 Build 0)  -->
<!DOCTYPE svg PUBLIC "-//W3C//DTD SVG 1.1//EN" "http://www.w3.org/Graphics/SVG/1.1/DTD/svg11.dtd">
<svg version="1.1" id="图层_1" xmlns="http://www.w3.org/2000/svg" xmlns:xlink="http://www.w3.org/1999/xlink" x="0px" y="0px"
	 width="45.113px" height="43.257px" viewBox="0 0 45.113 43.257" enable-background="new 0 0 45.113 43.257" xml:space="preserve">
<path opacity="0.9" fill="#FFFFFF" stroke="#040000" stroke-width="2" stroke-miterlimit="10" d="M33.119,7.901"/>
<radialGradient id="SVGID_1_" cx="22.5625" cy="30.8691" r="18.1933" gradientUnits="userSpaceOnUse">
	<stop  offset="0.3274" style="stop-color:#FFFFFF"/>
	<stop  offset="0.4529" style="stop-color:#F1F1F1;stop-opacity:0.812"/>
	<stop  offset="0.6054" style="stop-color:#DDDDDE;stop-opacity:0.9444"/>
	<stop  offset="0.7309" style="stop-color:#CCCCCC;stop-opacity:0.9918"/>
	<stop  offset="0.8924" style="stop-color:#CCCCCC"/>
	<stop  offset="0.9776" style="stop-color:#DEDEDE;stop-opacity:0.8305"/>
</radialGradient>
<path fill="#FFFFFF" stroke="url(#SVGID_1_)" stroke-width="2" stroke-miterlimit="10" d="M2.475,19.347
	c-1.634,0.948-1.457,1.784-1.457,1.818c0,11.649,9.671,21.069,21.548,21.092c11.901,0.023,21.547-9.443,21.547-21.092
	c0-0.014-0.291-0.54-0.82-1.415"/>
<path opacity="0.9" fill="#FFFFFF" stroke="#040000" stroke-width="2" stroke-miterlimit="10" d="M36.903,12.608"/>
<path opacity="0.9" fill="#FFFFFF" stroke="#040000" stroke-width="2" stroke-miterlimit="10" d="M36.903,12.608"/>
<path fill="none" stroke="#FFFFFF" stroke-miterlimit="10" d="M43.613,20.285c-23.132,10.517-42.595,0-42.595,0"/>
<path fill="none" stroke="#040000" stroke-width="2" stroke-miterlimit="10" d="M22.417,24.196"/>
<path fill="#B9B9B9" d="M42.8,22.203c0,0-1.561,20.271-24.995,18.102c0,0,9.134,1.481,17.127-5.466
	C39.18,31.146,37.066,34.895,42.8,22.203z"/>
<path fill="#FFFFFF" stroke="#D1D1D1" stroke-miterlimit="10" d="M0.68,20.763c0,0,0.544-1.092,1.615-2.262s0.313-0.412,1.516-1.671
	c0,0,0.547-3.014,1.542-3.395c3.126-1.198,2.693-3.513,4.104-4.313c0.965-0.547,3.121-3.144,3.121-3.144s2.028-1.831,3.166-1.661
	c1.138,0.169,0.878-2.164,3.743-2.88c0,0,1.242-1.166,1.9-0.897s1.647,0.785,2.405,1.461c0.757,0.676,2.358,1.838,3.701,1.995
	c1.345,0.157,2.194,1.929,2.538,2.302s2.512,1.768,3.813,2.468c0.955,0.513,2.203,3.235,2.777,4.012
	c0.693,0.937,2.15,1.037,3.031,3.206c0.879,2.169,2.106,2.566,2.679,3.064c0.571,0.498,2.114,0.835,2.114,1.714
	C44.445,20.763,23.081,30.737,0.68,20.763z"/>
<polygon fill="#CECECE" points="23.41,3.193 25.527,4.678 27.106,5.592 29.328,7.014 30.516,8.838 32.905,9.36 34.084,11.096 
	34.518,11.788 35.239,12.941 36.037,13.57 37.232,14.514 38.295,16.452 36,14.813 34.239,13.064 33.087,10.31 30.853,9.823 
	28.792,8.577 28.213,6.77 26.31,6.355 25.385,5.33 24.211,4.575 "/>
<polygon fill="#CCCCCC" points="19.809,6.911 20.106,8.441 20.391,9.523 20.748,11.087 20.598,12.261 21.304,13.624 21.179,14.765 
	21.116,15.201 21.011,15.928 21.101,16.527 21.236,17.426 21.004,18.571 20.689,16.901 20.606,15.465 21.067,14.016 20.407,12.741 
	20.052,11.313 20.418,10.451 19.855,9.365 19.846,8.577 19.659,7.749 "/>
<polygon fill="#D5D5D5" points="14.931,8.802 14.902,9.694 14.948,10.31 14.966,11.21 14.606,11.966 14.974,12.676 14.644,13.406 
	14.503,13.689 14.27,14.159 14.235,14.514 14.183,15.044 13.756,15.799 13.796,14.825 13.998,13.951 14.687,12.964 14.343,12.301 
	14.301,11.484 14.794,10.879 14.501,10.314 14.644,9.828 14.636,9.351 "/>
<polygon fill="#D5D5D5" points="28.107,13.875 28.645,14.565 29.063,14.997 29.64,15.663 29.844,16.474 30.563,16.76 30.773,17.532 
	30.846,17.839 30.965,18.35 31.16,18.64 31.453,19.074 31.606,19.929 31.027,19.169 30.631,18.375 30.529,17.169 29.857,16.902 
	29.314,16.315 29.305,15.529 28.732,15.301 28.534,14.839 28.23,14.486 "/>
</svg>
