<?xml version="1.0" encoding="utf-8"?>
<!-- Generator: Adobe Illustrator 16.0.0, SVG Export Plug-In . SVG Version: 6.00 Build 0)  -->
<!DOCTYPE svg PUBLIC "-//W3C//DTD SVG 1.1//EN" "http://www.w3.org/Graphics/SVG/1.1/DTD/svg11.dtd">
<svg version="1.1" id="图层_1" xmlns="http://www.w3.org/2000/svg" xmlns:xlink="http://www.w3.org/1999/xlink" x="0px" y="0px"
	 width="89.167px" height="52.134px" viewBox="0 0 89.167 52.134" enable-background="new 0 0 89.167 52.134" xml:space="preserve">
<rect x="-4.333" y="22.873" transform="matrix(0.8307 -0.5568 0.5568 0.8307 -7.7485 23.492)" opacity="0.9" fill="#FFFFFF" stroke="#FFFFFF" stroke-width="2" stroke-miterlimit="10" width="78.16" height="3.223"/>
<rect x="9.475" y="40.271" transform="matrix(0.9783 -0.2074 0.2074 0.9783 -7.5492 11.0422)" fill="#FFFFFF" stroke="#FFFFFF" stroke-width="2" stroke-miterlimit="10" width="78.83" height="2.51"/>
<rect x="-4.097" y="25.734" transform="matrix(0.8307 -0.5568 0.5568 0.8307 -8.4635 24.4557)" fill="#ADADAD" width="80.14" height="0.816"/>
<rect x="8.991" y="43.194" transform="matrix(0.9788 -0.2047 0.2047 0.9788 -7.8608 11.0467)" opacity="0.9" fill="#A5A5A5" width="80.963" height="0.661"/>
<rect x="8.841" y="42.611" transform="matrix(0.9788 -0.2047 0.2047 0.9788 -7.7426 11.0184)" opacity="0.9" fill="#B9B9B9" width="81.116" height="0.662"/>
<rect x="-4.515" y="25.192" transform="matrix(0.8307 -0.5568 0.5568 0.8307 -8.2298 24.141)" fill="#C4C4C4" width="80.175" height="0.817"/>
</svg>
