<?xml version="1.0" encoding="utf-8"?>
<!-- Generator: Adobe Illustrator 16.0.0, SVG Export Plug-In . SVG Version: 6.00 Build 0)  -->
<!DOCTYPE svg PUBLIC "-//W3C//DTD SVG 1.1//EN" "http://www.w3.org/Graphics/SVG/1.1/DTD/svg11.dtd">
<svg version="1.1" id="图层_1" xmlns="http://www.w3.org/2000/svg" xmlns:xlink="http://www.w3.org/1999/xlink" x="0px" y="0px"
	 width="81.962px" height="55.067px" viewBox="0 0 81.962 55.067" enable-background="new 0 0 81.962 55.067" xml:space="preserve">
<radialGradient id="SVGID_1_" cx="40.3296" cy="30.8247" r="34.8128" gradientTransform="matrix(1.1364 0 0 0.7641 -4.8499 3.7624)" gradientUnits="userSpaceOnUse">
	<stop  offset="0" style="stop-color:#FFFFFF"/>
	<stop  offset="0.005" style="stop-color:#FFFFFF;stop-opacity:0.8"/>
	<stop  offset="0.9075" style="stop-color:#F7F7F7"/>
	<stop  offset="1" style="stop-color:#B4BBBB;stop-opacity:0.7862"/>
	<stop  offset="1" style="stop-color:#C8CDCD;stop-opacity:0.7556"/>
	<stop  offset="1" style="stop-color:#9EA9A9"/>
</radialGradient>
<ellipse fill="url(#SVGID_1_)" stroke="#FFFFFF" stroke-width="2" stroke-miterlimit="10" cx="40.981" cy="27.315" rx="39.981" ry="26.315"/>
<path fill="#A5A5A5" d="M50.102,51.3c-1.558,0.225,6.031,0.199,17.563-7.375c0.335-0.219,11.278-8.906,11.278-13.625
	C78.942,23.803,82.155,46.695,50.102,51.3z"/>
<radialGradient id="SVGID_2_" cx="40.1724" cy="29.5142" r="21.8687" gradientTransform="matrix(1.1364 0 0 0.7641 -4.8499 3.7624)" gradientUnits="userSpaceOnUse">
	<stop  offset="0" style="stop-color:#FFFFFF;stop-opacity:0.8"/>
	<stop  offset="0.8503" style="stop-color:#F7F7F7"/>
	<stop  offset="0.9305" style="stop-color:#D6D7D7"/>
	<stop  offset="0.984" style="stop-color:#ABABAB"/>
</radialGradient>
<ellipse fill="url(#SVGID_2_)" stroke="#FFFFFF" stroke-miterlimit="10" cx="40.802" cy="26.314" rx="25.116" ry="16.53"/>
<path fill="#9E9E9E" d="M56.29,14.223c-0.302-0.137-11.043-5.686-24.418-2.64c-7.18,1.634-14.533,9.722-15.25,14.682
	c0.173-1.201,0.806-5.387,4.501-8.784c1.128-1.038,2.378-2.153,4.216-3.155C31.588,10.918,48.085,10.492,56.29,14.223z"/>
<path fill="#BBBBBB" d="M17.974,49.463c-4.267-1.606,15.778,10.78,40.885,3.032c1.396-0.432,4.482-1.688,8.041-3.896
	c3.973-2.466,8.536-6.119,11.993-11.135C82.575,32.122,62.587,66.263,17.974,49.463z"/>
</svg>
