<?xml version="1.0" encoding="utf-8"?>
<!-- Generator: Adobe Illustrator 16.0.0, SVG Export Plug-In . SVG Version: 6.00 Build 0)  -->
<!DOCTYPE svg PUBLIC "-//W3C//DTD SVG 1.1//EN" "http://www.w3.org/Graphics/SVG/1.1/DTD/svg11.dtd">
<svg version="1.1" id="图层_1" xmlns="http://www.w3.org/2000/svg" xmlns:xlink="http://www.w3.org/1999/xlink" x="0px" y="0px"
	 width="132.519px" height="126.28px" viewBox="0 0 132.519 126.28" enable-background="new 0 0 132.519 126.28"
	 xml:space="preserve">
<path fill="none" stroke="#040000" stroke-miterlimit="10" d="M14.365,117.411"/>
<path opacity="0.9" fill="#FFFFFF" stroke="#040000" stroke-width="2" stroke-miterlimit="10" d="M33.119,57.912"/>
<radialGradient id="SVGID_1_" cx="22.563" cy="80.8799" r="18.1933" gradientUnits="userSpaceOnUse">
	<stop  offset="0.3274" style="stop-color:#FFFFFF"/>
	<stop  offset="0.4529" style="stop-color:#F1F1F1;stop-opacity:0.812"/>
	<stop  offset="0.6054" style="stop-color:#DDDDDE;stop-opacity:0.9444"/>
	<stop  offset="0.7309" style="stop-color:#CCCCCC;stop-opacity:0.9918"/>
	<stop  offset="0.8924" style="stop-color:#CCCCCC"/>
	<stop  offset="0.9776" style="stop-color:#DEDEDE;stop-opacity:0.8305"/>
</radialGradient>
<path fill="#FFFFFF" stroke="url(#SVGID_1_)" stroke-width="2" stroke-miterlimit="10" d="M2.475,69.357
	c-1.634,0.948-1.457,1.783-1.457,1.818c0,11.648,9.671,21.068,21.548,21.092c11.9,0.023,21.548-9.443,21.548-21.092
	c0-0.015-0.292-0.54-0.82-1.415"/>
<path opacity="0.9" fill="#FFFFFF" stroke="#040000" stroke-width="2" stroke-miterlimit="10" d="M36.903,62.619"/>
<path opacity="0.9" fill="#FFFFFF" stroke="#040000" stroke-width="2" stroke-miterlimit="10" d="M36.903,62.619"/>
<path opacity="0.9" fill="#FFFFFF" stroke="#040000" stroke-width="2" stroke-miterlimit="10" d="M39.502,65.518"/>
<path fill="none" stroke="#FFFFFF" stroke-miterlimit="10" d="M43.613,70.296c-23.132,10.517-42.595,0-42.595,0"/>
<radialGradient id="SVGID_2_" cx="87.7656" cy="112.8438" r="34.8125" gradientTransform="matrix(1.1364 0 0 0.7641 -8.1994 12.3052)" gradientUnits="userSpaceOnUse">
	<stop  offset="0" style="stop-color:#FFFFFF"/>
	<stop  offset="0.005" style="stop-color:#FFFFFF;stop-opacity:0.8"/>
	<stop  offset="0.9075" style="stop-color:#F7F7F7"/>
	<stop  offset="1" style="stop-color:#B4BBBB;stop-opacity:0.7862"/>
	<stop  offset="1" style="stop-color:#C8CDCD;stop-opacity:0.7556"/>
	<stop  offset="1" style="stop-color:#9EA9A9"/>
</radialGradient>
<ellipse fill="url(#SVGID_2_)" stroke="#FFFFFF" stroke-width="2" stroke-miterlimit="10" cx="91.538" cy="98.529" rx="39.981" ry="26.314"/>
<path fill="none" stroke="#040000" stroke-width="2" stroke-miterlimit="10" d="M22.417,74.207"/>
<path fill="#A5A5A5" d="M100.658,122.514c-1.558,0.225,6.031,0.199,17.563-7.375c0.335-0.219,11.278-8.906,11.278-13.625
	C129.499,95.017,132.712,117.908,100.658,122.514z"/>
<radialGradient id="SVGID_3_" cx="87.6084" cy="111.5332" r="21.8689" gradientTransform="matrix(1.1364 0 0 0.7641 -8.1994 12.3052)" gradientUnits="userSpaceOnUse">
	<stop  offset="0" style="stop-color:#FFFFFF;stop-opacity:0.8"/>
	<stop  offset="0.8503" style="stop-color:#F7F7F7"/>
	<stop  offset="0.9305" style="stop-color:#D6D7D7"/>
	<stop  offset="0.984" style="stop-color:#ABABAB"/>
</radialGradient>
<ellipse fill="url(#SVGID_3_)" stroke="#FFFFFF" stroke-miterlimit="10" cx="91.359" cy="97.527" rx="25.116" ry="16.53"/>
<path fill="#9E9E9E" d="M106.847,85.437c-0.302-0.137-11.043-5.687-24.418-2.64c-7.18,1.634-14.533,9.721-15.25,14.682
	c0.173-1.201,0.806-5.387,4.501-8.784c1.128-1.038,2.378-2.153,4.216-3.155C82.145,82.131,98.642,81.705,106.847,85.437z"/>
<path fill="#B9B9B9" d="M42.8,72.213c0,0-1.561,20.271-24.995,18.103c0,0,9.134,1.481,17.127-5.466
	C39.18,81.156,37.066,84.905,42.8,72.213z"/>
<path fill="#BBBBBB" d="M68.53,120.677c-4.267-1.606,15.778,10.78,40.885,3.032c1.396-0.432,4.482-1.688,8.041-3.896
	c3.973-2.466,8.536-6.119,11.993-11.135C133.132,103.335,113.144,137.477,68.53,120.677z"/>
<path fill="#FFFFFF" stroke="#D1D1D1" stroke-miterlimit="10" d="M0.68,70.773c0,0,0.544-1.092,1.615-2.262S2.607,68.1,3.811,66.84
	c0,0,0.547-3.014,1.542-3.395c3.126-1.198,2.693-3.513,4.104-4.313c0.965-0.547,3.121-3.144,3.121-3.144s2.028-1.831,3.166-1.661
	c1.138,0.169,0.878-2.164,3.743-2.88c0,0,1.242-1.166,1.9-0.897s1.647,0.785,2.405,1.461c0.757,0.676,2.358,1.838,3.701,1.995
	c1.344,0.157,2.195,1.929,2.538,2.302c0.344,0.374,2.511,1.768,3.813,2.468c0.954,0.513,2.202,3.235,2.777,4.012
	c0.693,0.937,2.151,1.037,3.031,3.206s2.107,2.566,2.679,3.064c0.571,0.498,2.115,0.835,2.115,1.714
	C44.446,70.773,23.081,80.748,0.68,70.773z"/>
<polygon fill="#CECECE" points="23.411,53.204 25.527,54.689 27.106,55.603 29.328,57.024 30.516,58.849 32.905,59.371 
	34.084,61.107 34.518,61.799 35.239,62.952 36.037,63.581 37.233,64.524 38.295,66.462 36,64.824 34.239,63.075 33.087,60.32 
	30.853,59.833 28.792,58.587 28.212,56.781 26.31,56.366 25.385,55.341 24.211,54.585 "/>
<polygon fill="#CCCCCC" points="19.809,56.921 20.106,58.452 20.391,59.534 20.748,61.098 20.598,62.271 21.304,63.634 
	21.179,64.775 21.116,65.212 21.011,65.938 21.101,66.538 21.236,67.437 21.004,68.582 20.689,66.912 20.606,65.476 21.067,64.026 
	20.407,62.751 20.052,61.324 20.418,60.461 19.855,59.375 19.846,58.587 19.659,57.76 "/>
<polygon fill="#D5D5D5" points="14.931,58.813 14.902,59.705 14.948,60.32 14.966,61.221 14.606,61.977 14.974,62.687 
	14.644,63.417 14.503,63.7 14.27,64.17 14.235,64.524 14.183,65.055 13.756,65.81 13.796,64.835 13.998,63.961 14.687,62.975 
	14.343,62.312 14.301,61.495 14.794,60.89 14.501,60.325 14.644,59.838 14.636,59.362 "/>
<polygon fill="#D5D5D5" points="28.107,63.885 28.644,64.576 29.063,65.008 29.64,65.674 29.844,66.484 30.563,66.771 
	30.773,67.543 30.845,67.85 30.965,68.36 31.161,68.65 31.454,69.084 31.606,69.939 31.027,69.18 30.631,68.386 30.529,67.18 
	29.857,66.913 29.315,66.326 29.305,65.54 28.733,65.312 28.534,64.85 28.23,64.497 "/>
<path fill="none" stroke="#040000" stroke-width="3" stroke-miterlimit="10" d="M100.306,70.807"/>
<path fill="none" stroke="#FFFFFF" stroke-width="2" stroke-miterlimit="10" d="M53.667,59.987
	c6.331,0.778,28.653,3.065,61.555-4.087c6.347-1.018-51.322,9.491-61.703,34.416"/>
<rect x="33.308" y="22.873" transform="matrix(0.8307 -0.5568 0.5568 0.8307 -1.3746 44.4501)" opacity="0.9" fill="#FFFFFF" stroke="#FFFFFF" stroke-width="2" stroke-miterlimit="10" width="78.161" height="3.223"/>
<rect x="47.117" y="40.271" transform="matrix(0.9783 -0.2074 0.2074 0.9783 -6.7307 18.8488)" fill="#FFFFFF" stroke="#FFFFFF" stroke-width="2" stroke-miterlimit="10" width="78.83" height="2.509"/>
<rect x="33.545" y="25.734" transform="matrix(0.8307 -0.5568 0.5568 0.8307 -2.0896 45.4138)" fill="#ADADAD" width="80.139" height="0.817"/>
<rect x="46.633" y="43.194" transform="matrix(0.9788 -0.2047 0.2047 0.9788 -7.0638 18.7501)" opacity="0.9" fill="#A5A5A5" width="80.963" height="0.662"/>
<rect x="46.482" y="42.611" transform="matrix(0.9788 -0.2047 0.2047 0.9788 -6.9461 18.7224)" opacity="0.9" fill="#B9B9B9" width="81.116" height="0.662"/>
<rect x="33.127" y="25.191" transform="matrix(0.8307 -0.5568 0.5568 0.8307 -1.8555 45.0987)" fill="#C4C4C4" width="80.176" height="0.817"/>
</svg>
